# xmcd CD database file
#
# Track frame offsets:
#	150
#	21171
#	40371
#	43681
#	62014
#	78690
#	82101
#	101373
#	118231
#	136271
#	140369
#	157610
#	172056
#	183362
#	203922
#
# Disc length: 2762 seconds
#
# Revision: 2
# Processed by: cddbd v1.5.2PL0 Copyright (c) Steve Scherf et al.
# Submitted via: CDex 1.85
#
DISCID=cc0ac80f
DTITLE=Leeway Vincent Payen - A New Chapter
DYEAR=2018
DGENRE=Jazz
TTITLE0=Let It Go
TTITLE1=I Keep On Talking
TTITLE2=The Small Chapter part 1
TTITLE3=Albert Kahn
TTITLE4=Reaumur Sebastopol 
TTITLE5=The Small Chapter part 2
TTITLE6=Late At Night
TTITLE7=Whatever
TTITLE8=Flee The Bee
TTITLE9=The Small Chapter part 3
TTITLE10=A New Chapter
TTITLE11=Shattered Heart
TTITLE12=Up and Down
TTITLE13=Mon Legionnaire
TTITLE14=The Small Chapter part 4
EXTD=YEAR: 2018
EXTT0=
EXTT1=
EXTT2=
EXTT3=
EXTT4=
EXTT5=
EXTT6=
EXTT7=
EXTT8=
EXTT9=
EXTT10=
EXTT11=
EXTT12=
EXTT13=
EXTT14=
PLAYORDER=
